<svg xmlns="http://www.w3.org/2000/svg" viewBox="0 0 640 360" role="img" aria-labelledby="title desc">
  <title id="title">Periodic signal coverage thumbnail</title>
  <desc id="desc">Periodic waveforms segmented into coverage abstractions.</desc>
  <rect width="640" height="360" rx="28" fill="#1b1b2f"/>
  <g transform="translate(64 88)" fill="none" stroke-width="6" stroke-linecap="round">
    <path d="M0 72c32-88 64-88 96 0s64 88 96 0 64-88 96 0 64 88 96 0 64-88 96 0" stroke="#67e8f9"/>
    <path d="M0 152c46-52 82-52 128 0s82 52 128 0 82-52 128 0 82 52 128 0" stroke="#f0abfc" opacity=".9"/>
  </g>
  <g fill="#fde68a">
    <rect x="124" y="202" width="58" height="58" rx="8"/>
    <rect x="286" y="202" width="58" height="58" rx="8"/>
    <rect x="448" y="202" width="58" height="58" rx="8"/>
  </g>
  <text x="320" y="314" font-family="Arial, Helvetica, sans-serif" font-weight="700" font-size="28" fill="#ffffff" text-anchor="middle">Periodic Coverage Artefacts</text>
</svg>
